<mxfile host="drawio-plugin" modified="2021-05-09T20:40:21.134Z" agent="5.0 (Windows NT 6.2; Win64; x64) AppleWebKit/537.36 (KHTML, like Gecko) Chrome/87.0.4280.141 Safari/537.36" etag="O-l9abjquXWyzyoFBawi" version="13.7.9" type="embed"><diagram id="kDX64LwGvITEJF7KWYO4" name="Collision box test"><mxGraphModel dx="724" dy="567" grid="1" gridSize="10" guides="1" tooltips="1" connect="1" arrows="1" fold="1" page="1" pageScale="1" pageWidth="400" pageHeight="400" math="0" shadow="0"><root><mxCell id="0"/><mxCell id="1" parent="0"/><mxCell id="2" value="" style="verticalLabelPosition=bottom;html=1;verticalAlign=top;align=center;shape=mxgraph.floorplan.wallU;fillColor=#000000;" parent="1" vertex="1"><mxGeometry x="81" y="251" width="100" height="110" as="geometry"/></mxCell><object label="NOT TOUCHING&lt;br&gt;(1px)" type="robot" id="9"><mxCell style="rounded=0;whiteSpace=wrap;html=1;" parent="1" vertex="1"><mxGeometry x="92" y="262" width="78" height="99" as="geometry"/></mxCell></object><object label="NOT TOUCHING&lt;br&gt;(1px)" type="robot" id="21"><mxCell style="rounded=0;whiteSpace=wrap;html=1;textDirection=ltr;verticalAlign=middle;horizontal=0;" parent="1" vertex="1"><mxGeometry x="40" y="251" width="40" height="110" as="geometry"/></mxCell></object><object label="NOT TOUCHING&lt;br&gt;(1px)" type="robot" id="22"><mxCell style="rounded=0;whiteSpace=wrap;html=1;textDirection=ltr;verticalAlign=middle;horizontal=0;" parent="1" vertex="1"><mxGeometry x="182" y="251" width="40" height="110" as="geometry"/></mxCell></object><object label="NOT TOUCHING&lt;br&gt;(1px)" type="robot" id="23"><mxCell style="rounded=0;whiteSpace=wrap;html=1;" parent="1" vertex="1"><mxGeometry x="40" y="210" width="181" height="40" as="geometry"/></mxCell></object><mxCell id="29" value="" style="verticalLabelPosition=bottom;html=1;verticalAlign=top;align=center;shape=mxgraph.floorplan.room;fillColor=#000000;" parent="1" vertex="1"><mxGeometry x="82" y="80" width="100" height="100" as="geometry"/></mxCell><object label="NOT TOUCHING&lt;br&gt;(1px)" type="robot" id="30"><mxCell style="rounded=0;whiteSpace=wrap;html=1;" parent="1" vertex="1"><mxGeometry x="93" y="91" width="78" height="78" as="geometry"/></mxCell></object><mxCell id="31" value="" style="verticalLabelPosition=bottom;html=1;verticalAlign=top;align=center;shape=mxgraph.floorplan.wall;fillColor=#000000;direction=south;" parent="1" vertex="1"><mxGeometry x="223" y="210" width="10" height="151" as="geometry"/></mxCell><mxCell id="32" value="" style="verticalLabelPosition=bottom;html=1;verticalAlign=top;align=center;shape=mxgraph.floorplan.wall;fillColor=#000000;direction=south;" parent="1" vertex="1"><mxGeometry x="29" y="210" width="10" height="151" as="geometry"/></mxCell><mxCell id="33" value="" style="verticalLabelPosition=bottom;html=1;verticalAlign=top;align=center;shape=mxgraph.floorplan.wall;fillColor=#000000;" parent="1" vertex="1"><mxGeometry x="29" y="362" width="201" height="10" as="geometry"/></mxCell><mxCell id="34" value="" style="verticalLabelPosition=bottom;html=1;verticalAlign=top;align=center;shape=mxgraph.floorplan.wall;fillColor=#000000;" parent="1" vertex="1"><mxGeometry x="32" y="199" width="201" height="10" as="geometry"/></mxCell><object label="NOT TOUCHING&lt;br&gt;(1px)" type="robot" id="36"><mxCell style="rounded=0;whiteSpace=wrap;html=1;" parent="1" vertex="1"><mxGeometry x="240" y="91" width="78" height="78" as="geometry"/></mxCell></object><mxCell id="39" value="" style="verticalLabelPosition=bottom;html=1;verticalAlign=top;align=center;shape=mxgraph.floorplan.wallCorner;fillColor=#000000;direction=east;" parent="1" vertex="1"><mxGeometry x="229" y="80" width="100" height="100" as="geometry"/></mxCell><object label="NOT TOUCHING&lt;br&gt;(1px)" type="robot" id="42"><mxCell style="rounded=0;whiteSpace=wrap;html=1;" parent="1" vertex="1"><mxGeometry x="270" y="210" width="78" height="78" as="geometry"/></mxCell></object><mxCell id="43" value="" style="verticalLabelPosition=bottom;html=1;verticalAlign=top;align=center;shape=mxgraph.floorplan.wallCorner;fillColor=#000000;direction=south;" parent="1" vertex="1"><mxGeometry x="270" y="198" width="90" height="100" as="geometry"/></mxCell><mxCell id="44" value="" style="verticalLabelPosition=bottom;html=1;verticalAlign=top;align=center;shape=mxgraph.floorplan.wallCorner;fillColor=#000000;direction=west" parent="1" vertex="1"><mxGeometry x="230" y="81" width="100" height="100" as="geometry"/></mxCell><mxCell id="45" value="" style="verticalLabelPosition=bottom;html=1;verticalAlign=top;align=center;shape=mxgraph.floorplan.wallCorner;fillColor=#000000;direction=north" parent="1" vertex="1"><mxGeometry x="259" y="200" width="100" height="100" as="geometry"/></mxCell></root></mxGraphModel></diagram></mxfile>